<svg width="634" height="65" viewBox="0 0 634 65" fill="none" xmlns="http://www.w3.org/2000/svg">
<path fill-rule="evenodd" clip-rule="evenodd" d="M30 5C13.4315 5 0 18.4315 0 35C16.5685 35 30 48.4315 30 65C46.5685 65 60 51.5685 60 35C43.4315 35 30 21.5685 30 5ZM33.6009 5.21389C33.7152 19.6245 45.3755 31.2848 59.7861 31.3992C58.1485 17.7089 47.2911 6.85154 33.6009 5.21389ZM26.3992 64.7861C26.2848 50.3755 14.6245 38.7152 0.213882 38.6008C1.85152 52.2911 12.7089 63.1485 26.3992 64.7861Z" fill="#613FA0"/>
<path d="M94.165 56.765C90.493 56.765 87.229 56 84.373 54.47C81.517 52.94 79.29 50.781 77.692 47.993C76.094 45.171 75.295 41.907 75.295 38.201C75.295 34.495 76.094 31.231 77.692 28.409C79.29 25.587 81.517 23.411 84.373 21.881C87.229 20.351 90.493 19.586 94.165 19.586C99.061 19.586 103.158 20.827 106.456 23.309V28.307C103.498 25.689 99.554 24.38 94.624 24.38C91.87 24.38 89.422 24.941 87.28 26.063C85.172 27.185 83.523 28.8 82.333 30.908C81.143 32.982 80.548 35.413 80.548 38.201C80.548 40.989 81.143 43.437 82.333 45.545C83.557 47.653 85.223 49.268 87.331 50.39C89.473 51.512 91.904 52.073 94.624 52.073C97.14 52.073 99.384 51.75 101.356 51.104C103.362 50.424 105.215 49.353 106.915 47.891V52.94C103.855 55.49 99.605 56.765 94.165 56.765ZM124.437 20.351H129.435L143.664 56H138.36L134.79 47.126H119.031L115.563 56H110.208L124.437 20.351ZM133.362 42.791L126.936 26.114L120.51 42.791H133.362ZM149.279 20.351H154.226L172.382 47.228V20.351H177.635V56H172.637L154.481 29.123V56H149.279V20.351ZM202.092 56.765C198.42 56.765 195.156 56 192.3 54.47C189.444 52.94 187.217 50.781 185.619 47.993C184.021 45.171 183.222 41.907 183.222 38.201C183.222 34.495 184.021 31.231 185.619 28.409C187.217 25.587 189.444 23.411 192.3 21.881C195.156 20.351 198.42 19.586 202.092 19.586C206.988 19.586 211.085 20.827 214.383 23.309V28.307C211.425 25.689 207.481 24.38 202.551 24.38C199.797 24.38 197.349 24.941 195.207 26.063C193.099 27.185 191.45 28.8 190.26 30.908C189.07 32.982 188.475 35.413 188.475 38.201C188.475 40.989 189.07 43.437 190.26 45.545C191.484 47.653 193.15 49.268 195.258 50.39C197.4 51.512 199.831 52.073 202.551 52.073C205.067 52.073 207.311 51.75 209.283 51.104C211.289 50.424 213.142 49.353 214.842 47.891V52.94C211.782 55.49 207.532 56.765 202.092 56.765ZM220.45 20.351H225.652V35.651H244.267V20.351H249.469V56H244.267V40.037H225.652V56H220.45V20.351ZM269.319 20.351H274.317L288.546 56H283.242L279.672 47.126H263.913L260.445 56H255.09L269.319 20.351ZM278.244 42.791L271.818 26.114L265.392 42.791H278.244ZM301.764 56.765C299.724 56.765 297.701 56.578 295.695 56.204C293.723 55.864 292.108 55.388 290.85 54.776V50.084C294.114 51.614 297.633 52.379 301.407 52.379C306.711 52.379 309.363 50.594 309.363 47.024C309.363 45.8 309.074 44.814 308.496 44.066C307.918 43.318 307.085 42.672 305.997 42.128C304.909 41.55 303.141 40.768 300.693 39.782C297.327 38.422 294.896 36.926 293.4 35.294C291.904 33.662 291.156 31.605 291.156 29.123C291.156 27.253 291.666 25.604 292.686 24.176C293.706 22.714 295.134 21.592 296.97 20.81C298.806 19.994 300.914 19.586 303.294 19.586C305.232 19.586 306.983 19.739 308.547 20.045C310.111 20.351 311.641 20.844 313.137 21.524V26.012C310.179 24.686 307.187 24.023 304.161 24.023C301.713 24.023 299.843 24.465 298.551 25.349C297.259 26.233 296.613 27.491 296.613 29.123C296.613 30.245 296.885 31.197 297.429 31.979C298.007 32.727 298.84 33.407 299.928 34.019C301.05 34.597 302.699 35.328 304.875 36.212C307.289 37.198 309.193 38.133 310.587 39.017C311.981 39.901 313.035 40.989 313.749 42.281C314.497 43.539 314.871 45.12 314.871 47.024C314.871 50.118 313.766 52.515 311.556 54.215C309.346 55.915 306.082 56.765 301.764 56.765ZM348.361 24.737H337.294V20.351H364.681V24.737H353.614V56H348.361V24.737ZM383.75 56.765C378.888 56.765 375.216 55.524 372.734 53.042C370.252 50.526 369.011 47.075 369.011 42.689V20.351H374.213V42.893C374.213 45.919 375.063 48.214 376.763 49.778C378.463 51.308 380.792 52.073 383.75 52.073C386.674 52.073 388.986 51.308 390.686 49.778C392.386 48.214 393.236 45.919 393.236 42.893V20.351H398.438V42.689C398.438 47.041 397.197 50.475 394.715 52.991C392.233 55.507 388.578 56.765 383.75 56.765ZM404.827 20.351H409.774L427.93 47.228V20.351H433.183V56H428.185L410.029 29.123V56H404.827V20.351ZM458.456 56C454.58 56 451.146 55.269 448.154 53.807C445.196 52.345 442.884 50.271 441.218 47.585C439.586 44.865 438.77 41.703 438.77 38.099C438.77 34.461 439.586 31.248 441.218 28.46C442.85 25.638 445.094 23.462 447.95 21.932C450.806 20.368 454.002 19.586 457.538 19.586C461.074 19.586 464.27 20.368 467.126 21.932C469.982 23.462 472.226 25.638 473.858 28.46C475.49 31.248 476.306 34.461 476.306 38.099C476.306 40.989 475.643 43.641 474.317 46.055C473.025 48.435 471.308 50.254 469.166 51.512H476.867V56H458.456ZM457.538 51.257C460.156 51.257 462.485 50.747 464.525 49.727C466.565 48.707 468.146 47.211 469.268 45.239C470.424 43.233 471.002 40.853 471.002 38.099C471.002 35.379 470.407 32.982 469.217 30.908C468.027 28.8 466.412 27.185 464.372 26.063C462.332 24.941 460.054 24.38 457.538 24.38C455.022 24.38 452.727 24.941 450.653 26.063C448.613 27.185 446.998 28.783 445.808 30.857C444.618 32.931 444.023 35.345 444.023 38.099C444.023 40.887 444.584 43.267 445.706 45.239C446.862 47.211 448.46 48.707 450.5 49.727C452.54 50.747 454.886 51.257 457.538 51.257ZM495.96 56.765C491.098 56.765 487.426 55.524 484.944 53.042C482.462 50.526 481.221 47.075 481.221 42.689V20.351H486.423V42.893C486.423 45.919 487.273 48.214 488.973 49.778C490.673 51.308 493.002 52.073 495.96 52.073C498.884 52.073 501.196 51.308 502.896 49.778C504.596 48.214 505.446 45.919 505.446 42.893V20.351H510.648V42.689C510.648 47.041 509.407 50.475 506.925 52.991C504.443 55.507 500.788 56.765 495.96 56.765ZM517.037 20.351H540.548V24.737H522.239V36.008H535.907V40.343H522.239V51.665H540.548V56H517.037V20.351ZM545.923 20.351H551.125V51.665H569.179V56H545.923V20.351ZM585.053 9.437H590.51L586.277 18.209H581.585L585.053 9.437ZM573.017 20.351H596.528V24.737H578.219V36.008H591.887V40.343H578.219V51.665H596.528V56H573.017V20.351ZM601.904 20.351H606.851L625.007 47.228V20.351H630.26V56H625.262L607.106 29.123V56H601.904V20.351Z" fill="#4A1B61"/>
</svg>
