<svg width="300" height="410" viewBox="0 0 300 410" fill="none" xmlns="http://www.w3.org/2000/svg">
<circle cx="150" cy="135" r="130" stroke="#613FA0" stroke-width="10"/>
<mask id="path-2-outside-1_5_28" maskUnits="userSpaceOnUse" x="15" y="0" width="270" height="270" fill="black">
<rect fill="white" x="15" width="270" height="270"/>
<path fill-rule="evenodd" clip-rule="evenodd" d="M25 135C25 65.9644 80.9644 10 150 10C150 79.0356 205.964 135 275 135C275 204.036 219.036 260 150 260C150 190.964 94.0356 135 25 135Z"/>
</mask>
<path d="M150 10H160V0H150V10ZM25 135H15V145H25V135ZM275 135H285V125H275V135ZM150 260H140V270H150V260ZM150 0C75.4416 0 15 60.4416 15 135H35C35 71.4873 86.4873 20 150 20V0ZM275 125C211.487 125 160 73.5127 160 10H140C140 84.5584 200.442 145 275 145V125ZM150 270C224.558 270 285 209.558 285 135H265C265 198.513 213.513 250 150 250V270ZM25 145C88.5127 145 140 196.487 140 260H160C160 185.442 99.5584 125 25 125V145Z" fill="#613FA0" mask="url(#path-2-outside-1_5_28)"/>
<path d="M25.73 328.93C21.266 328.93 17.298 328 13.826 326.14C10.354 324.28 7.64667 321.655 5.704 318.266C3.76133 314.835 2.79 310.867 2.79 306.362C2.79 301.857 3.76133 297.889 5.704 294.458C7.64667 291.027 10.354 288.382 13.826 286.522C17.298 284.662 21.266 283.732 25.73 283.732C31.682 283.732 36.6627 285.241 40.672 288.258V294.334C37.076 291.151 32.2813 289.56 26.288 289.56C22.94 289.56 19.964 290.242 17.36 291.606C14.7973 292.97 12.7927 294.933 11.346 297.496C9.89933 300.017 9.176 302.973 9.176 306.362C9.176 309.751 9.89933 312.727 11.346 315.29C12.834 317.853 14.8593 319.816 17.422 321.18C20.026 322.544 22.9813 323.226 26.288 323.226C29.3467 323.226 32.0747 322.833 34.472 322.048C36.9107 321.221 39.1633 319.919 41.23 318.142V324.28C37.51 327.38 32.3433 328.93 25.73 328.93ZM62.5314 284.662H68.6074L85.9054 328H79.4574L75.1174 317.212H55.9594L51.7434 328H45.2334L62.5314 284.662ZM73.3814 311.942L65.5694 291.668L57.7574 311.942H73.3814ZM92.7312 284.662H98.7452L120.817 317.336V284.662H127.203V328H121.127L99.0552 295.326V328H92.7312V284.662ZM156.935 328.93C152.471 328.93 148.503 328 145.031 326.14C141.559 324.28 138.852 321.655 136.909 318.266C134.966 314.835 133.995 310.867 133.995 306.362C133.995 301.857 134.966 297.889 136.909 294.458C138.852 291.027 141.559 288.382 145.031 286.522C148.503 284.662 152.471 283.732 156.935 283.732C162.887 283.732 167.868 285.241 171.877 288.258V294.334C168.281 291.151 163.486 289.56 157.493 289.56C154.145 289.56 151.169 290.242 148.565 291.606C146.002 292.97 143.998 294.933 142.551 297.496C141.104 300.017 140.381 302.973 140.381 306.362C140.381 309.751 141.104 312.727 142.551 315.29C144.039 317.853 146.064 319.816 148.627 321.18C151.231 322.544 154.186 323.226 157.493 323.226C160.552 323.226 163.28 322.833 165.677 322.048C168.116 321.221 170.368 319.919 172.435 318.142V324.28C168.715 327.38 163.548 328.93 156.935 328.93ZM179.253 284.662H185.577V303.262H208.207V284.662H214.531V328H208.207V308.594H185.577V328H179.253V284.662ZM238.662 284.662H244.738L262.036 328H255.588L251.248 317.212H232.09L227.874 328H221.364L238.662 284.662ZM249.512 311.942L241.7 291.668L233.888 311.942H249.512ZM278.105 328.93C275.625 328.93 273.166 328.703 270.727 328.248C268.33 327.835 266.366 327.256 264.837 326.512V320.808C268.805 322.668 273.083 323.598 277.671 323.598C284.119 323.598 287.343 321.428 287.343 317.088C287.343 315.6 286.992 314.401 286.289 313.492C285.586 312.583 284.574 311.797 283.251 311.136C281.928 310.433 279.779 309.483 276.803 308.284C272.711 306.631 269.756 304.812 267.937 302.828C266.118 300.844 265.209 298.343 265.209 295.326C265.209 293.053 265.829 291.048 267.069 289.312C268.309 287.535 270.045 286.171 272.277 285.22C274.509 284.228 277.072 283.732 279.965 283.732C282.321 283.732 284.45 283.918 286.351 284.29C288.252 284.662 290.112 285.261 291.931 286.088V291.544C288.335 289.932 284.698 289.126 281.019 289.126C278.043 289.126 275.77 289.663 274.199 290.738C272.628 291.813 271.843 293.342 271.843 295.326C271.843 296.69 272.174 297.847 272.835 298.798C273.538 299.707 274.55 300.534 275.873 301.278C277.237 301.981 279.242 302.869 281.887 303.944C284.822 305.143 287.136 306.279 288.831 307.354C290.526 308.429 291.807 309.751 292.675 311.322C293.584 312.851 294.039 314.773 294.039 317.088C294.039 320.849 292.696 323.763 290.009 325.83C287.322 327.897 283.354 328.93 278.105 328.93ZM12.342 373.737H1.275V369.351H28.662V373.737H17.595V405H12.342V373.737ZM47.7316 405.765C42.8696 405.765 39.1976 404.524 36.7156 402.042C34.2336 399.526 32.9926 396.075 32.9926 391.689V369.351H38.1946V391.893C38.1946 394.919 39.0446 397.214 40.7446 398.778C42.4446 400.308 44.7736 401.073 47.7316 401.073C50.6556 401.073 52.9676 400.308 54.6676 398.778C56.3676 397.214 57.2176 394.919 57.2176 391.893V369.351H62.4196V391.689C62.4196 396.041 61.1786 399.475 58.6966 401.991C56.2146 404.507 52.5596 405.765 47.7316 405.765ZM68.8082 369.351H73.7552L91.9112 396.228V369.351H97.1642V405H92.1662L74.0102 378.123V405H68.8082V369.351ZM122.437 405C118.561 405 115.127 404.269 112.135 402.807C109.177 401.345 106.865 399.271 105.199 396.585C103.567 393.865 102.751 390.703 102.751 387.099C102.751 383.461 103.567 380.248 105.199 377.46C106.831 374.638 109.075 372.462 111.931 370.932C114.787 369.368 117.983 368.586 121.519 368.586C125.055 368.586 128.251 369.368 131.107 370.932C133.963 372.462 136.207 374.638 137.839 377.46C139.471 380.248 140.287 383.461 140.287 387.099C140.287 389.989 139.624 392.641 138.298 395.055C137.006 397.435 135.289 399.254 133.147 400.512H140.848V405H122.437ZM121.519 400.257C124.137 400.257 126.466 399.747 128.506 398.727C130.546 397.707 132.127 396.211 133.249 394.239C134.405 392.233 134.983 389.853 134.983 387.099C134.983 384.379 134.388 381.982 133.198 379.908C132.008 377.8 130.393 376.185 128.353 375.063C126.313 373.941 124.035 373.38 121.519 373.38C119.003 373.38 116.708 373.941 114.634 375.063C112.594 376.185 110.979 377.783 109.789 379.857C108.599 381.931 108.004 384.345 108.004 387.099C108.004 389.887 108.565 392.267 109.687 394.239C110.843 396.211 112.441 397.707 114.481 398.727C116.521 399.747 118.867 400.257 121.519 400.257ZM159.942 405.765C155.08 405.765 151.408 404.524 148.926 402.042C146.444 399.526 145.203 396.075 145.203 391.689V369.351H150.405V391.893C150.405 394.919 151.255 397.214 152.955 398.778C154.655 400.308 156.984 401.073 159.942 401.073C162.866 401.073 165.178 400.308 166.878 398.778C168.578 397.214 169.428 394.919 169.428 391.893V369.351H174.63V391.689C174.63 396.041 173.389 399.475 170.907 401.991C168.425 404.507 164.77 405.765 159.942 405.765ZM181.018 369.351H204.529V373.737H186.22V385.008H199.888V389.343H186.22V400.665H204.529V405H181.018V369.351ZM209.905 369.351H215.107V400.665H233.161V405H209.905V369.351ZM249.035 358.437H254.492L250.259 367.209H245.567L249.035 358.437ZM236.999 369.351H260.51V373.737H242.201V385.008H255.869V389.343H242.201V400.665H260.51V405H236.999V369.351ZM265.885 369.351H270.832L288.988 396.228V369.351H294.241V405H289.243L271.087 378.123V405H265.885V369.351Z" fill="#4A1B61"/>
</svg>
