<svg width="300" height="400" viewBox="0 0 300 400" fill="none" xmlns="http://www.w3.org/2000/svg">
<path d="M25.73 318.93C21.266 318.93 17.298 318 13.826 316.14C10.354 314.28 7.64667 311.655 5.704 308.266C3.76133 304.835 2.79 300.867 2.79 296.362C2.79 291.857 3.76133 287.889 5.704 284.458C7.64667 281.027 10.354 278.382 13.826 276.522C17.298 274.662 21.266 273.732 25.73 273.732C31.682 273.732 36.6627 275.241 40.672 278.258V284.334C37.076 281.151 32.2813 279.56 26.288 279.56C22.94 279.56 19.964 280.242 17.36 281.606C14.7973 282.97 12.7927 284.933 11.346 287.496C9.89933 290.017 9.176 292.973 9.176 296.362C9.176 299.751 9.89933 302.727 11.346 305.29C12.834 307.853 14.8593 309.816 17.422 311.18C20.026 312.544 22.9813 313.226 26.288 313.226C29.3467 313.226 32.0747 312.833 34.472 312.048C36.9107 311.221 39.1633 309.919 41.23 308.142V314.28C37.51 317.38 32.3433 318.93 25.73 318.93ZM62.5314 274.662H68.6074L85.9054 318H79.4574L75.1174 307.212H55.9594L51.7434 318H45.2334L62.5314 274.662ZM73.3814 301.942L65.5694 281.668L57.7574 301.942H73.3814ZM92.7312 274.662H98.7452L120.817 307.336V274.662H127.203V318H121.127L99.0552 285.326V318H92.7312V274.662ZM156.935 318.93C152.471 318.93 148.503 318 145.031 316.14C141.559 314.28 138.852 311.655 136.909 308.266C134.966 304.835 133.995 300.867 133.995 296.362C133.995 291.857 134.966 287.889 136.909 284.458C138.852 281.027 141.559 278.382 145.031 276.522C148.503 274.662 152.471 273.732 156.935 273.732C162.887 273.732 167.868 275.241 171.877 278.258V284.334C168.281 281.151 163.486 279.56 157.493 279.56C154.145 279.56 151.169 280.242 148.565 281.606C146.002 282.97 143.998 284.933 142.551 287.496C141.104 290.017 140.381 292.973 140.381 296.362C140.381 299.751 141.104 302.727 142.551 305.29C144.039 307.853 146.064 309.816 148.627 311.18C151.231 312.544 154.186 313.226 157.493 313.226C160.552 313.226 163.28 312.833 165.677 312.048C168.116 311.221 170.368 309.919 172.435 308.142V314.28C168.715 317.38 163.548 318.93 156.935 318.93ZM179.253 274.662H185.577V293.262H208.207V274.662H214.531V318H208.207V298.594H185.577V318H179.253V274.662ZM238.662 274.662H244.738L262.036 318H255.588L251.248 307.212H232.09L227.874 318H221.364L238.662 274.662ZM249.512 301.942L241.7 281.668L233.888 301.942H249.512ZM278.105 318.93C275.625 318.93 273.166 318.703 270.727 318.248C268.33 317.835 266.366 317.256 264.837 316.512V310.808C268.805 312.668 273.083 313.598 277.671 313.598C284.119 313.598 287.343 311.428 287.343 307.088C287.343 305.6 286.992 304.401 286.289 303.492C285.586 302.583 284.574 301.797 283.251 301.136C281.928 300.433 279.779 299.483 276.803 298.284C272.711 296.631 269.756 294.812 267.937 292.828C266.118 290.844 265.209 288.343 265.209 285.326C265.209 283.053 265.829 281.048 267.069 279.312C268.309 277.535 270.045 276.171 272.277 275.22C274.509 274.228 277.072 273.732 279.965 273.732C282.321 273.732 284.45 273.918 286.351 274.29C288.252 274.662 290.112 275.261 291.931 276.088V281.544C288.335 279.932 284.698 279.126 281.019 279.126C278.043 279.126 275.77 279.663 274.199 280.738C272.628 281.813 271.843 283.342 271.843 285.326C271.843 286.69 272.174 287.847 272.835 288.798C273.538 289.707 274.55 290.534 275.873 291.278C277.237 291.981 279.242 292.869 281.887 293.944C284.822 295.143 287.136 296.279 288.831 297.354C290.526 298.429 291.807 299.751 292.675 301.322C293.584 302.851 294.039 304.773 294.039 307.088C294.039 310.849 292.696 313.763 290.009 315.83C287.322 317.897 283.354 318.93 278.105 318.93ZM12.342 363.737H1.275V359.351H28.662V363.737H17.595V395H12.342V363.737ZM47.7316 395.765C42.8696 395.765 39.1976 394.524 36.7156 392.042C34.2336 389.526 32.9926 386.075 32.9926 381.689V359.351H38.1946V381.893C38.1946 384.919 39.0446 387.214 40.7446 388.778C42.4446 390.308 44.7736 391.073 47.7316 391.073C50.6556 391.073 52.9676 390.308 54.6676 388.778C56.3676 387.214 57.2176 384.919 57.2176 381.893V359.351H62.4196V381.689C62.4196 386.041 61.1786 389.475 58.6966 391.991C56.2146 394.507 52.5596 395.765 47.7316 395.765ZM68.8082 359.351H73.7552L91.9112 386.228V359.351H97.1642V395H92.1662L74.0102 368.123V395H68.8082V359.351ZM122.437 395C118.561 395 115.127 394.269 112.135 392.807C109.177 391.345 106.865 389.271 105.199 386.585C103.567 383.865 102.751 380.703 102.751 377.099C102.751 373.461 103.567 370.248 105.199 367.46C106.831 364.638 109.075 362.462 111.931 360.932C114.787 359.368 117.983 358.586 121.519 358.586C125.055 358.586 128.251 359.368 131.107 360.932C133.963 362.462 136.207 364.638 137.839 367.46C139.471 370.248 140.287 373.461 140.287 377.099C140.287 379.989 139.624 382.641 138.298 385.055C137.006 387.435 135.289 389.254 133.147 390.512H140.848V395H122.437ZM121.519 390.257C124.137 390.257 126.466 389.747 128.506 388.727C130.546 387.707 132.127 386.211 133.249 384.239C134.405 382.233 134.983 379.853 134.983 377.099C134.983 374.379 134.388 371.982 133.198 369.908C132.008 367.8 130.393 366.185 128.353 365.063C126.313 363.941 124.035 363.38 121.519 363.38C119.003 363.38 116.708 363.941 114.634 365.063C112.594 366.185 110.979 367.783 109.789 369.857C108.599 371.931 108.004 374.345 108.004 377.099C108.004 379.887 108.565 382.267 109.687 384.239C110.843 386.211 112.441 387.707 114.481 388.727C116.521 389.747 118.867 390.257 121.519 390.257ZM159.942 395.765C155.08 395.765 151.408 394.524 148.926 392.042C146.444 389.526 145.203 386.075 145.203 381.689V359.351H150.405V381.893C150.405 384.919 151.255 387.214 152.955 388.778C154.655 390.308 156.984 391.073 159.942 391.073C162.866 391.073 165.178 390.308 166.878 388.778C168.578 387.214 169.428 384.919 169.428 381.893V359.351H174.63V381.689C174.63 386.041 173.389 389.475 170.907 391.991C168.425 394.507 164.77 395.765 159.942 395.765ZM181.018 359.351H204.529V363.737H186.22V375.008H199.888V379.343H186.22V390.665H204.529V395H181.018V359.351ZM209.905 359.351H215.107V390.665H233.161V395H209.905V359.351ZM249.035 348.437H254.492L250.259 357.209H245.567L249.035 348.437ZM236.999 359.351H260.51V363.737H242.201V375.008H255.869V379.343H242.201V390.665H260.51V395H236.999V359.351ZM265.885 359.351H270.832L288.988 386.228V359.351H294.241V395H289.243L271.087 368.123V395H265.885V359.351Z" fill="#4A1B61"/>
<path fill-rule="evenodd" clip-rule="evenodd" d="M150 0C80.9644 0 25 55.9644 25 125C94.0356 125 150 180.964 150 250C219.036 250 275 194.036 275 125C205.964 125 150 69.0356 150 0ZM165.004 0.891174C165.48 60.9355 214.065 109.52 274.109 109.996C267.285 52.9539 222.046 7.71466 165.004 0.891174ZM134.996 249.109C134.52 189.065 85.9355 140.48 25.8912 140.004C32.7147 197.046 77.9539 242.285 134.996 249.109Z" fill="#613FA0"/>
</svg>
